%TF.GenerationSoftware,Altium Limited,Altium Designer,25.8.1 (18)*%
G04 Layer_Color=65535*
%FSLAX45Y45*%
%MOMM*%
%TF.SameCoordinates,2FF33906-8C3F-4A98-91CA-6D6761CCC680*%
%TF.FilePolarity,Positive*%
%TF.FileFunction,Legend,Top*%
%TF.Part,Single*%
G01*
G75*
%TA.AperFunction,NonConductor*%
%ADD19C,0.25000*%
%ADD20C,0.20000*%
%ADD21C,0.25400*%
D19*
X12020000Y6550000D02*
G03*
X12020000Y6550000I-12500J0D01*
G01*
X10977500Y6695000D02*
G03*
X10977500Y6695000I-12500J0D01*
G01*
X10482500Y6662500D02*
G03*
X10482500Y6662500I-12500J0D01*
G01*
D20*
X11627500Y6592500D02*
Y6607500D01*
X11772500Y6592500D02*
Y6607500D01*
X12175000Y6325000D02*
X12297500D01*
X12580000Y6452500D02*
Y6772500D01*
X12175000Y6900000D02*
X12297500D01*
X12175000Y6742500D02*
Y6900000D01*
Y6325000D02*
Y6482500D01*
X11165000Y6450000D02*
Y6750000D01*
Y6450000D02*
X11235000D01*
Y6750000D01*
X11165000D02*
X11235000D01*
X10180000Y6887500D02*
X10302500D01*
X9897500Y6440000D02*
Y6760000D01*
X10180000Y6312500D02*
X10302500D01*
Y6470000D01*
Y6730000D02*
Y6887500D01*
X10677500Y6592500D02*
Y6607500D01*
X10822500Y6592500D02*
Y6607500D01*
D21*
X10965180Y6997651D02*
Y6870692D01*
X10990572Y6845300D01*
X11041355D01*
X11066747Y6870692D01*
Y6997651D01*
X11117531Y6845300D02*
X11168314D01*
X11142923D01*
Y6997651D01*
X11117531Y6972259D01*
X12110687Y7157671D02*
X12059903D01*
X12085295D01*
Y7030712D01*
X12059903Y7005320D01*
X12034512D01*
X12009120Y7030712D01*
X12263038Y7005320D02*
X12161471D01*
X12263038Y7106887D01*
Y7132279D01*
X12237646Y7157671D01*
X12186863D01*
X12161471Y7132279D01*
X9979627Y7144971D02*
X9928843D01*
X9954235D01*
Y7018012D01*
X9928843Y6992620D01*
X9903452D01*
X9878060Y7018012D01*
X10030411Y6992620D02*
X10081194D01*
X10055803D01*
Y7144971D01*
X10030411Y7119579D01*
X11711907Y6972259D02*
X11686515Y6997651D01*
X11635732D01*
X11610340Y6972259D01*
Y6870692D01*
X11635732Y6845300D01*
X11686515D01*
X11711907Y6870692D01*
X11864258Y6845300D02*
X11762691D01*
X11864258Y6946867D01*
Y6972259D01*
X11838866Y6997651D01*
X11788083D01*
X11762691Y6972259D01*
X10761947D02*
X10736555Y6997651D01*
X10685772D01*
X10660380Y6972259D01*
Y6870692D01*
X10685772Y6845300D01*
X10736555D01*
X10761947Y6870692D01*
X10812731Y6845300D02*
X10863514D01*
X10838123D01*
Y6997651D01*
X10812731Y6972259D01*
%TF.MD5,e4207a95f05da3d52d603493e6eb12c3*%
M02*
